<?xml version="1.0" standalone="no"?>
<!DOCTYPE svg PUBLIC "-//W3C//DTD SVG 20010904//EN"
 "http://www.w3.org/TR/2001/REC-SVG-20010904/DTD/svg10.dtd">
<svg version="1.0" xmlns="http://www.w3.org/2000/svg"
 width="415.000000pt" height="415.000000pt" viewBox="0 0 415.000000 415.000000"
 preserveAspectRatio="xMidYMid meet">

<g transform="translate(0.000000,415.000000) scale(0.100000,-0.100000)"
fill="#000000" stroke="none">
<path d="M1955 4140 c-114 -10 -163 -28 -211 -75 -101 -101 -75 -270 51 -334
49 -25 53 -26 230 -23 150 3 196 0 275 -17 582 -122 1177 -676 1364 -1271 44
-138 59 -263 51 -435 -6 -146 -6 -151 17 -195 36 -67 94 -103 173 -108 51 -3
73 0 110 18 90 44 123 118 132 295 17 357 -105 757 -335 1101 -329 491 -832
866 -1330 994 -170 43 -382 63 -527 50z"/>
<path d="M523 3721 c-88 -32 -163 -89 -310 -239 -101 -102 -149 -159 -167
-196 -120 -253 5 -758 315 -1277 284 -476 757 -996 1239 -1363 643 -490 1327
-737 1674 -606 91 35 295 228 404 384 90 128 101 261 32 395 -49 96 -180 223
-345 335 -230 155 -391 188 -536 110 -57 -32 -193 -147 -226 -193 -13 -16 -44
-42 -69 -57 -39 -23 -53 -26 -102 -21 -164 15 -390 167 -739 495 -442 417
-703 770 -703 952 0 60 20 91 139 215 127 133 162 195 169 301 8 124 -50 265
-184 444 -136 183 -252 285 -367 324 -63 21 -160 20 -224 -3z"/>
<path d="M2027 3337 c-148 -46 -196 -237 -89 -350 37 -40 70 -55 154 -72 225
-47 375 -128 542 -292 141 -140 231 -302 277 -501 11 -48 25 -100 31 -116 60
-153 276 -175 372 -38 58 83 44 228 -45 457 -173 446 -550 778 -1017 896 -123
31 -166 34 -225 16z"/>
</g>
</svg>
